<svg width="2394" height="887" viewBox="0 0 2394 887" fill="none" xmlns="http://www.w3.org/2000/svg">
<path d="M1739 295L1740.12 298.455H1743.76L1740.82 300.59L1741.94 304.045L1739 301.91L1736.06 304.045L1737.18 300.59L1734.24 298.455H1737.88L1739 295Z" fill="#FCF9BF"/>
<path d="M1630.5 614L1632.18 619.182H1637.63L1633.22 622.385L1634.91 627.568L1630.5 624.365L1626.09 627.568L1627.78 622.385L1623.37 619.182H1628.82L1630.5 614Z" fill="#FCF9BF"/>
<path d="M770 20L771.123 23.4549H774.755L771.816 25.5902L772.939 29.0451L770 26.9098L767.061 29.0451L768.184 25.5902L765.245 23.4549H768.877L770 20Z" fill="#FCF9BF"/>
<path d="M1833.5 149L1835.18 154.182H1840.63L1836.22 157.385L1837.91 162.568L1833.5 159.365L1829.09 162.568L1830.78 157.385L1826.37 154.182H1831.82L1833.5 149Z" fill="#FCF9BF"/>
<path d="M2357.5 375L2359.18 380.182H2364.63L2360.22 383.385L2361.91 388.568L2357.5 385.365L2353.09 388.568L2354.78 383.385L2350.37 380.182H2355.82L2357.5 375Z" fill="#FCF9BF"/>
<path d="M908.5 807L910.184 812.182H915.633L911.225 815.385L912.908 820.568L908.5 817.365L904.092 820.568L905.775 815.385L901.367 812.182H906.816L908.5 807Z" fill="#FCF9BF"/>
<path d="M7.5 832L9.18386 837.182H14.6329L10.2245 840.385L11.9084 845.568L7.5 842.365L3.09161 845.568L4.77547 840.385L0.367076 837.182H5.81614L7.5 832Z" fill="#FCF9BF"/>
<path d="M433 86L434.123 89.4549H437.755L434.816 91.5902L435.939 95.0451L433 92.9098L430.061 95.0451L431.184 91.5902L428.245 89.4549H431.877L433 86Z" fill="#FCF9BF"/>
<path d="M2319 847L2320.12 850.455H2323.76L2320.82 852.59L2321.94 856.045L2319 853.91L2316.06 856.045L2317.18 852.59L2314.24 850.455H2317.88L2319 847Z" fill="#FCF9BF"/>
<path d="M461 669L462.123 672.455H465.755L462.816 674.59L463.939 678.045L461 675.91L458.061 678.045L459.184 674.59L456.245 672.455H459.877L461 669Z" fill="#FCF9BF"/>
<path d="M690 565L691.123 568.455H694.755L691.816 570.59L692.939 574.045L690 571.91L687.061 574.045L688.184 570.59L685.245 568.455H688.877L690 565Z" fill="#FCF9BF"/>
<path d="M1003 506L1004.12 509.455H1007.76L1004.82 511.59L1005.94 515.045L1003 512.91L1000.06 515.045L1001.18 511.59L998.245 509.455H1001.88L1003 506Z" fill="#FCF9BF"/>
<path d="M352 877L353.123 880.455H356.755L353.816 882.59L354.939 886.045L352 883.91L349.061 886.045L350.184 882.59L347.245 880.455H350.877L352 877Z" fill="#FCF9BF"/>
<path d="M1658 10L1659.12 13.4549H1662.76L1659.82 15.5902L1660.94 19.0451L1658 16.9098L1655.06 19.0451L1656.18 15.5902L1653.24 13.4549H1656.88L1658 10Z" fill="#FCF9BF"/>
<path d="M2389 49L2390.12 52.4549H2393.76L2390.82 54.5902L2391.94 58.0451L2389 55.9098L2386.06 58.0451L2387.18 54.5902L2384.24 52.4549H2387.88L2389 49Z" fill="#FCF9BF"/>
<path d="M561 399L562.123 402.455H565.755L562.816 404.59L563.939 408.045L561 405.91L558.061 408.045L559.184 404.59L556.245 402.455H559.877L561 399Z" fill="#FCF9BF"/>
<path d="M132 262L133.123 265.455H136.755L133.816 267.59L134.939 271.045L132 268.91L129.061 271.045L130.184 267.59L127.245 265.455H130.877L132 262Z" fill="#FCF9BF"/>
<path d="M1595 852L1596.12 855.455H1599.76L1596.82 857.59L1597.94 861.045L1595 858.91L1592.06 861.045L1593.18 857.59L1590.24 855.455H1593.88L1595 852Z" fill="#FCF9BF"/>
<path d="M1325 404L1326.12 407.455H1329.76L1326.82 409.59L1327.94 413.045L1325 410.91L1322.06 413.045L1323.18 409.59L1320.24 407.455H1323.88L1325 404Z" fill="#FCF9BF"/>
<path d="M1262 575L1263.12 578.455H1266.76L1263.82 580.59L1264.94 584.045L1262 581.91L1259.06 584.045L1260.18 580.59L1257.24 578.455H1260.88L1262 575Z" fill="#FCF9BF"/>
<path d="M1414 176L1415.12 179.455H1418.76L1415.82 181.59L1416.94 185.045L1414 182.91L1411.06 185.045L1412.18 181.59L1409.24 179.455H1412.88L1414 176Z" fill="#FCF9BF"/>
<path d="M2012 721L2013.12 724.455H2016.76L2013.82 726.59L2014.94 730.045L2012 727.91L2009.06 730.045L2010.18 726.59L2007.24 724.455H2010.88L2012 721Z" fill="#FCF9BF"/>
<path d="M1150 142L1151.12 145.455H1154.76L1151.82 147.59L1152.94 151.045L1150 148.91L1147.06 151.045L1148.18 147.59L1145.24 145.455H1148.88L1150 142Z" fill="#FCF9BF"/>
<path d="M1917 486L1918.12 489.455H1921.76L1918.82 491.59L1919.94 495.045L1917 492.91L1914.06 495.045L1915.18 491.59L1912.24 489.455H1915.88L1917 486Z" fill="#FCF9BF"/>
<path d="M49 0L50.1226 3.45492H53.7553L50.8164 5.59017L51.9389 9.04508L49 6.90983L46.0611 9.04508L47.1836 5.59017L44.2447 3.45492H47.8774L49 0Z" fill="#FCF9BF"/>
<path d="M237 496L238.123 499.455H241.755L238.816 501.59L239.939 505.045L237 502.91L234.061 505.045L235.184 501.59L232.245 499.455H235.877L237 496Z" fill="#FCF9BF"/>
<path d="M2124 226L2125.12 229.455H2128.76L2125.82 231.59L2126.94 235.045L2124 232.91L2121.06 235.045L2122.18 231.59L2119.24 229.455H2122.88L2124 226Z" fill="#FCF9BF"/>
<path d="M864 300L865.123 303.455H868.755L865.816 305.59L866.939 309.045L864 306.91L861.061 309.045L862.184 305.59L859.245 303.455H862.877L864 300Z" fill="#FCF9BF"/>
</svg>
