<svg width="2454" height="1016" viewBox="0 0 2454 1016" fill="none" xmlns="http://www.w3.org/2000/svg">
<path d="M816 691L814.877 687.545L811.244 687.545L814.183 685.41L813.061 681.955L816 684.09L818.938 681.955L817.816 685.41L820.755 687.545L817.122 687.545L816 691Z" fill="#FCF9BF"/>
<path d="M866.5 505L864.816 499.818L859.367 499.818L863.775 496.615L862.092 491.432L866.5 494.635L870.908 491.432L869.225 496.615L873.633 499.818L868.184 499.818L866.5 505Z" fill="#FCF9BF"/>
<path d="M1336.5 823L1334.82 817.818L1329.37 817.818L1333.78 814.615L1332.09 809.432L1336.5 812.635L1340.91 809.432L1339.22 814.615L1343.63 817.818L1338.18 817.818L1336.5 823Z" fill="#FCF9BF"/>
<path d="M512.5 174L510.816 168.818L505.367 168.818L509.775 165.615L508.092 160.432L512.5 163.635L516.908 160.432L515.225 165.615L519.633 168.818L514.184 168.818L512.5 174Z" fill="#FCF9BF"/>
<path d="M75.5 639L73.8161 633.818L68.3671 633.818L72.7755 630.615L71.0916 625.432L75.5 628.635L79.9084 625.432L78.2245 630.615L82.6329 633.818L77.1839 633.818L75.5 639Z" fill="#FCF9BF"/>
<path d="M1999.5 77L1997.82 71.8176L1992.37 71.8176L1996.78 68.6147L1995.09 63.4324L1999.5 66.6352L2003.91 63.4324L2002.22 68.6147L2006.63 71.8176L2001.18 71.8176L1999.5 77Z" fill="#FCF9BF"/>
<path d="M1760.5 426L1758.82 420.818L1753.37 420.818L1757.78 417.615L1756.09 412.432L1760.5 415.635L1764.91 412.432L1763.22 417.615L1767.63 420.818L1762.18 420.818L1760.5 426Z" fill="#FCF9BF"/>
<path d="M692.5 558L690.816 552.818L685.367 552.818L689.775 549.615L688.092 544.432L692.5 547.635L696.908 544.432L695.225 549.615L699.633 552.818L694.184 552.818L692.5 558Z" fill="#FCF9BF"/>
<path d="M279.5 553L277.816 547.818L272.367 547.818L276.775 544.615L275.092 539.432L279.5 542.635L283.908 539.432L282.225 544.615L286.633 547.818L281.184 547.818L279.5 553Z" fill="#FCF9BF"/>
<path d="M1808.5 565L1806.82 559.818L1801.37 559.818L1805.78 556.615L1804.09 551.432L1808.5 554.635L1812.91 551.432L1811.22 556.615L1815.63 559.818L1810.18 559.818L1808.5 565Z" fill="#FCF9BF"/>
<path d="M415.5 169L413.816 163.818L408.367 163.818L412.775 160.615L411.092 155.432L415.5 158.635L419.908 155.432L418.225 160.615L422.633 163.818L417.184 163.818L415.5 169Z" fill="#FCF9BF"/>
<path d="M1450.5 315L1448.82 309.818L1443.37 309.818L1447.78 306.615L1446.09 301.432L1450.5 304.635L1454.91 301.432L1453.22 306.615L1457.63 309.818L1452.18 309.818L1450.5 315Z" fill="#FCF9BF"/>
<path d="M589.5 972L587.816 966.818L582.367 966.818L586.775 963.615L585.092 958.432L589.5 961.635L593.908 958.432L592.225 963.615L596.633 966.818L591.184 966.818L589.5 972Z" fill="#FCF9BF"/>
<path d="M1586.5 852L1584.82 846.818L1579.37 846.818L1583.78 843.615L1582.09 838.432L1586.5 841.635L1590.91 838.432L1589.22 843.615L1593.63 846.818L1588.18 846.818L1586.5 852Z" fill="#FCF9BF"/>
<path d="M2296.5 676L2294.82 670.818L2289.37 670.818L2293.78 667.615L2292.09 662.432L2296.5 665.635L2300.91 662.432L2299.22 667.615L2303.63 670.818L2298.18 670.818L2296.5 676Z" fill="#FCF9BF"/>
<path d="M1728 996L1726.88 992.545L1723.24 992.545L1726.18 990.41L1725.06 986.955L1728 989.09L1730.94 986.955L1729.82 990.41L1732.76 992.545L1729.12 992.545L1728 996Z" fill="#FCF9BF"/>
<path d="M1482.5 134L1480.82 128.818L1475.37 128.818L1479.78 125.615L1478.09 120.432L1482.5 123.635L1486.91 120.432L1485.22 125.615L1489.63 128.818L1484.18 128.818L1482.5 134Z" fill="#FCF9BF"/>
<path d="M2288.5 285L2286.82 279.818L2281.37 279.818L2285.78 276.615L2284.09 271.432L2288.5 274.635L2292.91 271.432L2291.22 276.615L2295.63 279.818L2290.18 279.818L2288.5 285Z" fill="#FCF9BF"/>
<path d="M2065 930L2063.88 926.545L2060.24 926.545L2063.18 924.41L2062.06 920.955L2065 923.09L2067.94 920.955L2066.82 924.41L2069.76 926.545L2066.12 926.545L2065 930Z" fill="#FCF9BF"/>
<path d="M262 270L260.877 266.545L257.245 266.545L260.184 264.41L259.061 260.955L262 263.09L264.939 260.955L263.816 264.41L266.755 266.545L263.122 266.545L262 270Z" fill="#FCF9BF"/>
<path d="M2080 454L2078.88 450.545L2075.24 450.545L2078.18 448.41L2077.06 444.955L2080 447.09L2082.94 444.955L2081.82 448.41L2084.76 450.545L2081.12 450.545L2080 454Z" fill="#FCF9BF"/>
<path d="M1495 510L1493.88 506.545L1490.24 506.545L1493.18 504.41L1492.06 500.955L1495 503.09L1497.94 500.955L1496.82 504.41L1499.76 506.545L1496.12 506.545L1495 510Z" fill="#FCF9BF"/>
<path d="M840 1006L838.877 1002.55L835.244 1002.55L838.183 1000.41L837.061 996.955L840 999.09L842.938 996.955L841.816 1000.41L844.755 1002.55L841.122 1002.55L840 1006Z" fill="#FCF9BF"/>
<path d="M109 967L107.877 963.545L104.245 963.545L107.184 961.41L106.061 957.955L109 960.09L111.939 957.955L110.816 961.41L113.755 963.545L110.123 963.545L109 967Z" fill="#FCF9BF"/>
<path d="M2070 631L2068.88 627.545L2065.24 627.545L2068.18 625.41L2067.06 621.955L2070 624.09L2072.94 621.955L2071.82 625.41L2074.76 627.545L2071.12 627.545L2070 631Z" fill="#FCF9BF"/>
<path d="M903 164L901.877 160.545L898.244 160.545L901.183 158.41L900.061 154.955L903 157.09L905.938 154.955L904.816 158.41L907.755 160.545L904.122 160.545L903 164Z" fill="#FCF9BF"/>
<path d="M1074 414L1072.88 410.545L1069.24 410.545L1072.18 408.41L1071.06 404.955L1074 407.09L1076.94 404.955L1075.82 408.41L1078.76 410.545L1075.12 410.545L1074 414Z" fill="#FCF9BF"/>
<path d="M1184 899L1182.88 895.545L1179.24 895.545L1182.18 893.41L1181.06 889.955L1184 892.09L1186.94 889.955L1185.82 893.41L1188.76 895.545L1185.12 895.545L1184 899Z" fill="#FCF9BF"/>
<path d="M625 285L623.877 281.545L620.245 281.545L623.184 279.41L622.061 275.955L625 278.09L627.939 275.955L626.816 279.41L629.755 281.545L626.123 281.545L625 285Z" fill="#FCF9BF"/>
<path d="M299 419L297.877 415.545L294.245 415.545L297.184 413.41L296.061 409.955L299 412.09L301.939 409.955L300.816 413.41L303.755 415.545L300.123 415.545L299 419Z" fill="#FCF9BF"/>
<path d="M2449 1016L2447.88 1012.55L2444.24 1012.55L2447.18 1010.41L2446.06 1006.95L2449 1009.09L2451.94 1006.95L2450.82 1010.41L2453.76 1012.55L2450.12 1012.55L2449 1016Z" fill="#FCF9BF"/>
<path d="M267 808L265.877 804.545L262.245 804.545L265.184 802.41L264.061 798.955L267 801.09L269.939 798.955L268.816 802.41L271.755 804.545L268.123 804.545L267 808Z" fill="#FCF9BF"/>
<path d="M604.5 713L602.816 707.818L597.367 707.818L601.775 704.615L600.091 699.433L604.5 702.635L608.908 699.433L607.224 704.615L611.632 707.818L606.183 707.818L604.5 713Z" fill="#FCF9BF"/>
<path d="M14.5 365L12.8161 359.818L7.36708 359.818L11.7755 356.615L10.0916 351.432L14.5 354.635L18.9084 351.432L17.2245 356.615L21.6329 359.818L16.1839 359.818L14.5 365Z" fill="#FCF9BF"/>
<path d="M2228.5 131L2226.82 125.818L2221.37 125.818L2225.78 122.615L2224.09 117.432L2228.5 120.635L2232.91 117.432L2231.22 122.615L2235.63 125.818L2230.18 125.818L2228.5 131Z" fill="#FCF9BF"/>
<path d="M202 116L200.877 112.545L197.245 112.545L200.184 110.41L199.061 106.955L202 109.09L204.939 106.955L203.816 110.41L206.755 112.545L203.122 112.545L202 116Z" fill="#FCF9BF"/>
<path d="M2020 300L2018.88 296.545L2015.24 296.545L2018.18 294.41L2017.06 290.955L2020 293.09L2022.94 290.955L2021.82 294.41L2024.76 296.545L2021.12 296.545L2020 300Z" fill="#FCF9BF"/>
<path d="M1628 270L1626.88 266.545L1623.24 266.545L1626.18 264.41L1625.06 260.955L1628 263.09L1630.94 260.955L1629.82 264.41L1632.76 266.545L1629.12 266.545L1628 270Z" fill="#FCF9BF"/>
<path d="M49 813L47.8774 809.545L44.2447 809.545L47.1836 807.41L46.0611 803.955L49 806.09L51.9389 803.955L50.8164 807.41L53.7553 809.545L50.1226 809.545L49 813Z" fill="#FCF9BF"/>
<path d="M843 10.0002L841.877 6.54527L838.244 6.54527L841.183 4.41001L840.061 0.955099L843 3.09035L845.938 0.955098L844.816 4.41001L847.755 6.54527L844.122 6.54527L843 10.0002Z" fill="#FCF9BF"/>
<path d="M1014 260L1012.88 256.545L1009.24 256.545L1012.18 254.41L1011.06 250.955L1014 253.09L1016.94 250.955L1015.82 254.41L1018.76 256.545L1015.12 256.545L1014 260Z" fill="#FCF9BF"/>
<path d="M1124 745L1122.88 741.545L1119.24 741.545L1122.18 739.41L1121.06 735.955L1124 738.09L1126.94 735.955L1125.82 739.41L1128.76 741.545L1125.12 741.545L1124 745Z" fill="#FCF9BF"/>
<path d="M1344 639L1342.88 635.545L1339.24 635.545L1342.18 633.41L1341.06 629.955L1344 632.09L1346.94 629.955L1345.82 633.41L1348.76 635.545L1345.12 635.545L1344 639Z" fill="#FCF9BF"/>
<path d="M2389 862L2387.88 858.545L2384.24 858.545L2387.18 856.41L2386.06 852.955L2389 855.09L2391.94 852.955L2390.82 856.41L2393.76 858.545L2390.12 858.545L2389 862Z" fill="#FCF9BF"/>
<path d="M1717 676L1715.88 672.545L1712.24 672.545L1715.18 670.41L1714.06 666.955L1717 669.09L1719.94 666.955L1718.82 670.41L1721.76 672.545L1718.12 672.545L1717 676Z" fill="#FCF9BF"/>
<path d="M1630.5 681L1632.18 686.182H1637.63L1633.22 689.385L1634.91 694.568L1630.5 691.365L1626.09 694.568L1627.78 689.385L1623.37 686.182H1628.82L1630.5 681Z" fill="#FCF9BF"/>
<path d="M1833.5 216L1835.18 221.182H1840.63L1836.22 224.385L1837.91 229.568L1833.5 226.365L1829.09 229.568L1830.78 224.385L1826.37 221.182H1831.82L1833.5 216Z" fill="#FCF9BF"/>
<path d="M2357.5 442L2359.18 447.182H2364.63L2360.22 450.385L2361.91 455.568L2357.5 452.365L2353.09 455.568L2354.78 450.385L2350.37 447.182H2355.82L2357.5 442Z" fill="#FCF9BF"/>
<path d="M908.5 874L910.184 879.182H915.633L911.225 882.385L912.908 887.568L908.5 884.365L904.092 887.568L905.775 882.385L901.367 879.182H906.816L908.5 874Z" fill="#FCF9BF"/>
<path d="M7.5 899L9.18386 904.182H14.6329L10.2245 907.385L11.9084 912.568L7.5 909.365L3.09161 912.568L4.77547 907.385L0.367076 904.182H5.81614L7.5 899Z" fill="#FCF9BF"/>
<path d="M2319 914L2320.12 917.455H2323.76L2320.82 919.59L2321.94 923.045L2319 920.91L2316.06 923.045L2317.18 919.59L2314.24 917.455H2317.88L2319 914Z" fill="#FCF9BF"/>
<path d="M1003 573L1004.12 576.455H1007.76L1004.82 578.59L1005.94 582.045L1003 579.91L1000.06 582.045L1001.18 578.59L998.245 576.455H1001.88L1003 573Z" fill="#FCF9BF"/>
<path d="M352 944L353.123 947.455H356.755L353.816 949.59L354.939 953.045L352 950.91L349.061 953.045L350.184 949.59L347.245 947.455H350.877L352 944Z" fill="#FCF9BF"/>
<path d="M1658 77L1659.12 80.4549H1662.76L1659.82 82.5902L1660.94 86.0451L1658 83.9098L1655.06 86.0451L1656.18 82.5902L1653.24 80.4549H1656.88L1658 77Z" fill="#FCF9BF"/>
<path d="M2389 116L2390.12 119.455H2393.76L2390.82 121.59L2391.94 125.045L2389 122.91L2386.06 125.045L2387.18 121.59L2384.24 119.455H2387.88L2389 116Z" fill="#FCF9BF"/>
<path d="M561 466L562.123 469.455H565.755L562.816 471.59L563.939 475.045L561 472.91L558.061 475.045L559.184 471.59L556.245 469.455H559.877L561 466Z" fill="#FCF9BF"/>
<path d="M1325 471L1326.12 474.455H1329.76L1326.82 476.59L1327.94 480.045L1325 477.91L1322.06 480.045L1323.18 476.59L1320.24 474.455H1323.88L1325 471Z" fill="#FCF9BF"/>
<path d="M2012 788L2013.12 791.455H2016.76L2013.82 793.59L2014.94 797.045L2012 794.91L2009.06 797.045L2010.18 793.59L2007.24 791.455H2010.88L2012 788Z" fill="#FCF9BF"/>
<path d="M1917 553L1918.12 556.455H1921.76L1918.82 558.59L1919.94 562.045L1917 559.91L1914.06 562.045L1915.18 558.59L1912.24 556.455H1915.88L1917 553Z" fill="#FCF9BF"/>
<path d="M1821 778L1822.12 781.455H1825.76L1822.82 783.59L1823.94 787.045L1821 784.91L1818.06 787.045L1819.18 783.59L1816.24 781.455H1819.88L1821 778Z" fill="#FCF9BF"/>
<path d="M1265 240L1266.12 243.455H1269.76L1266.82 245.59L1267.94 249.045L1265 246.91L1262.06 249.045L1263.18 245.59L1260.24 243.455H1263.88L1265 240Z" fill="#FCF9BF"/>
<path d="M848 360L849.123 363.455H852.755L849.816 365.59L850.939 369.045L848 366.91L845.061 369.045L846.184 365.59L843.245 363.455H846.877L848 360Z" fill="#FCF9BF"/>
<path d="M1134 87L1135.12 90.4549H1138.76L1135.82 92.5902L1136.94 96.0451L1134 93.9098L1131.06 96.0451L1132.18 92.5902L1129.24 90.4549H1132.88L1134 87Z" fill="#FCF9BF"/>
<path d="M1873 967L1874.12 970.455H1877.76L1874.82 972.59L1875.94 976.045L1873 973.91L1870.06 976.045L1871.18 972.59L1868.24 970.455H1871.88L1873 967Z" fill="#FCF9BF"/>
<path d="M2195 827L2196.12 830.455H2199.76L2196.82 832.59L2197.94 836.045L2195 833.91L2192.06 836.045L2193.18 832.59L2190.24 830.455H2193.88L2195 827Z" fill="#FCF9BF"/>
<path d="M403 611L404.123 614.455H407.755L404.816 616.59L405.939 620.045L403 617.91L400.061 620.045L401.184 616.59L398.245 614.455H401.877L403 611Z" fill="#FCF9BF"/>
<path d="M441 303L442.123 306.455H445.755L442.816 308.59L443.939 312.045L441 309.91L438.061 312.045L439.184 308.59L436.245 306.455H439.877L441 303Z" fill="#FCF9BF"/>
<path d="M1378 972L1379.12 975.455H1382.76L1379.82 977.59L1380.94 981.045L1378 978.91L1375.06 981.045L1376.18 977.59L1373.24 975.455H1376.88L1378 972Z" fill="#FCF9BF"/>
<path d="M690 116L691.123 119.455H694.755L691.816 121.59L692.939 125.045L690 122.91L687.061 125.045L688.184 121.59L685.245 119.455H688.877L690 116Z" fill="#FCF9BF"/>
<path d="M719 827L720.123 830.455H723.755L720.816 832.59L721.939 836.045L719 833.91L716.061 836.045L717.184 832.59L714.245 830.455H717.877L719 827Z" fill="#FCF9BF"/>
<path d="M49 67L50.1226 70.4549H53.7553L50.8164 72.5902L51.9389 76.0451L49 73.9098L46.0611 76.0451L47.1836 72.5902L44.2447 70.4549H47.8774L49 67Z" fill="#FCF9BF"/>
</svg>
