<svg width="2387" height="897" viewBox="0 0 2387 897" fill="none" xmlns="http://www.w3.org/2000/svg">
<path d="M749 572L747.877 568.545L744.244 568.545L747.183 566.41L746.061 562.955L749 565.09L751.938 562.955L750.816 566.41L753.755 568.545L750.122 568.545L749 572Z" fill="#FCF9BF"/>
<path d="M690.5 362L688.816 356.818L683.367 356.818L687.775 353.615L686.092 348.432L690.5 351.635L694.908 348.432L693.225 353.615L697.633 356.818L692.184 356.818L690.5 362Z" fill="#FCF9BF"/>
<path d="M1661 877L1659.88 873.545L1656.24 873.545L1659.18 871.41L1658.06 867.955L1661 870.09L1663.94 867.955L1662.82 871.41L1665.76 873.545L1662.12 873.545L1661 877Z" fill="#FCF9BF"/>
<path d="M597.5 748L595.816 742.818L590.367 742.818L594.775 739.615L593.091 734.433L597.5 737.635L601.908 734.433L600.224 739.615L604.632 742.818L599.183 742.818L597.5 748Z" fill="#FCF9BF"/>
<path d="M7.5 400L5.81614 394.818L0.367075 394.818L4.77546 391.615L3.09161 386.432L7.5 389.635L11.9084 386.432L10.2245 391.615L14.6329 394.818L9.18385 394.818L7.5 400Z" fill="#FCF9BF"/>
<path d="M1415.5 15L1413.82 9.81766L1408.37 9.81766L1412.78 6.61478L1411.09 1.4324L1415.5 4.63529L1419.91 1.4324L1418.22 6.61478L1422.63 9.81766L1417.18 9.81766L1415.5 15Z" fill="#FCF9BF"/>
<path d="M2221.5 166L2219.82 160.818L2214.37 160.818L2218.78 157.615L2217.09 152.432L2221.5 155.635L2225.91 152.432L2224.22 157.615L2228.63 160.818L2223.18 160.818L2221.5 166Z" fill="#FCF9BF"/>
<path d="M1998 811L1996.88 807.545L1993.24 807.545L1996.18 805.41L1995.06 801.955L1998 804.09L2000.94 801.955L1999.82 805.41L2002.76 807.545L1999.12 807.545L1998 811Z" fill="#FCF9BF"/>
<path d="M195 151L193.877 147.545L190.245 147.545L193.184 145.41L192.061 141.955L195 144.09L197.939 141.955L196.816 145.41L199.755 147.545L196.123 147.545L195 151Z" fill="#FCF9BF"/>
<path d="M2013 335L2011.88 331.545L2008.24 331.545L2011.18 329.41L2010.06 325.955L2013 328.09L2015.94 325.955L2014.82 329.41L2017.76 331.545L2014.12 331.545L2013 335Z" fill="#FCF9BF"/>
<path d="M1630 396L1628.88 392.545L1625.24 392.545L1628.18 390.41L1627.06 386.955L1630 389.09L1632.94 386.955L1631.82 390.41L1634.76 392.545L1631.12 392.545L1630 396Z" fill="#FCF9BF"/>
<path d="M1428 391L1426.88 387.545L1423.24 387.545L1426.18 385.41L1425.06 381.955L1428 384.09L1430.94 381.955L1429.82 385.41L1432.76 387.545L1429.12 387.545L1428 391Z" fill="#FCF9BF"/>
<path d="M2079 20L2077.88 16.5451L2074.24 16.5451L2077.18 14.4099L2076.06 10.9549L2079 13.0902L2081.94 10.9549L2080.82 14.4099L2083.76 16.5451L2080.12 16.5451L2079 20Z" fill="#FCF9BF"/>
<path d="M773 887L771.877 883.545L768.244 883.545L771.183 881.41L770.061 877.955L773 880.09L775.938 877.955L774.816 881.41L777.755 883.545L774.122 883.545L773 887Z" fill="#FCF9BF"/>
<path d="M42 848L40.8774 844.545L37.2447 844.545L40.1836 842.41L39.0611 838.955L42 841.09L44.9389 838.955L43.8164 842.41L46.7553 844.545L43.1226 844.545L42 848Z" fill="#FCF9BF"/>
<path d="M2003 512L2001.88 508.545L1998.24 508.545L2001.18 506.41L2000.06 502.955L2003 505.09L2005.94 502.955L2004.82 506.41L2007.76 508.545L2004.12 508.545L2003 512Z" fill="#FCF9BF"/>
<path d="M2299 635L2297.88 631.545L2294.24 631.545L2297.18 629.41L2296.06 625.955L2299 628.09L2301.94 625.955L2300.82 629.41L2303.76 631.545L2300.12 631.545L2299 635Z" fill="#FCF9BF"/>
<path d="M836 45.0001L834.877 41.5452L831.244 41.5452L834.183 39.41L833.061 35.9551L836 38.0903L838.938 35.9551L837.816 39.41L840.755 41.5452L837.122 41.5452L836 45.0001Z" fill="#FCF9BF"/>
<path d="M1051 577L1049.88 573.545L1046.24 573.545L1049.18 571.41L1048.06 567.955L1051 570.09L1053.94 567.955L1052.82 571.41L1055.76 573.545L1052.12 573.545L1051 577Z" fill="#FCF9BF"/>
<path d="M1007 295L1005.88 291.545L1002.24 291.545L1005.18 289.41L1004.06 285.955L1007 288.09L1009.94 285.955L1008.82 289.41L1011.76 291.545L1008.12 291.545L1007 295Z" fill="#FCF9BF"/>
<path d="M1117 780L1115.88 776.545L1112.24 776.545L1115.18 774.41L1114.06 770.955L1117 773.09L1119.94 770.955L1118.82 774.41L1121.76 776.545L1118.12 776.545L1117 780Z" fill="#FCF9BF"/>
<path d="M558 166L556.877 162.545L553.245 162.545L556.184 160.41L555.061 156.955L558 159.09L560.939 156.955L559.816 160.41L562.755 162.545L559.123 162.545L558 166Z" fill="#FCF9BF"/>
<path d="M1337 674L1335.88 670.545L1332.24 670.545L1335.18 668.41L1334.06 664.955L1337 667.09L1339.94 664.955L1338.82 668.41L1341.76 670.545L1338.12 670.545L1337 674Z" fill="#FCF9BF"/>
<path d="M232 300L230.877 296.545L227.245 296.545L230.184 294.41L229.061 290.955L232 293.09L234.939 290.955L233.816 294.41L236.755 296.545L233.123 296.545L232 300Z" fill="#FCF9BF"/>
<path d="M2382 897L2380.88 893.545L2377.24 893.545L2380.18 891.41L2379.06 887.955L2382 890.09L2384.94 887.955L2383.82 891.41L2386.76 893.545L2383.12 893.545L2382 897Z" fill="#FCF9BF"/>
<path d="M2194 401L2192.88 397.545L2189.24 397.545L2192.18 395.41L2191.06 391.955L2194 394.09L2196.94 391.955L2195.82 395.41L2198.76 397.545L2195.12 397.545L2194 401Z" fill="#FCF9BF"/>
<path d="M200 689L198.877 685.545L195.245 685.545L198.184 683.41L197.061 679.955L200 682.09L202.939 679.955L201.816 683.41L204.755 685.545L201.123 685.545L200 689Z" fill="#FCF9BF"/>
<path d="M1710 711L1708.88 707.545L1705.24 707.545L1708.18 705.41L1707.06 701.955L1710 704.09L1712.94 701.955L1711.82 705.41L1714.76 707.545L1711.12 707.545L1710 711Z" fill="#FCF9BF"/>
</svg>
