<svg width="2454" height="1016" viewBox="0 0 2454 1016" fill="none" xmlns="http://www.w3.org/2000/svg">
<path d="M816 691L814.877 687.545L811.244 687.545L814.183 685.41L813.061 681.955L816 684.09L818.938 681.955L817.816 685.41L820.755 687.545L817.122 687.545L816 691Z" fill="#FCF9BF"/>
<path d="M866.5 505L864.816 499.818L859.367 499.818L863.775 496.615L862.092 491.432L866.5 494.635L870.908 491.432L869.225 496.615L873.633 499.818L868.184 499.818L866.5 505Z" fill="#FCF9BF"/>
<path d="M1442.5 818L1440.82 812.818L1435.37 812.818L1439.78 809.615L1438.09 804.432L1442.5 807.635L1446.91 804.432L1445.22 809.615L1449.63 812.818L1444.18 812.818L1442.5 818Z" fill="#FCF9BF"/>
<path d="M1235.5 128L1233.82 122.818L1228.37 122.818L1232.78 119.615L1231.09 114.432L1235.5 117.635L1239.91 114.432L1238.22 119.615L1242.63 122.818L1237.18 122.818L1235.5 128Z" fill="#FCF9BF"/>
<path d="M1728 996L1726.88 992.545L1723.24 992.545L1726.18 990.41L1725.06 986.955L1728 989.09L1730.94 986.955L1729.82 990.41L1732.76 992.545L1729.12 992.545L1728 996Z" fill="#FCF9BF"/>
<path d="M1482.5 134L1480.82 128.818L1475.37 128.818L1479.78 125.615L1478.09 120.432L1482.5 123.635L1486.91 120.432L1485.22 125.615L1489.63 128.818L1484.18 128.818L1482.5 134Z" fill="#FCF9BF"/>
<path d="M622.5 889L620.816 883.818L615.367 883.818L619.775 880.615L618.092 875.432L622.5 878.635L626.908 875.432L625.225 880.615L629.633 883.818L624.184 883.818L622.5 889Z" fill="#FCF9BF"/>
<path d="M2288.5 285L2286.82 279.818L2281.37 279.818L2285.78 276.615L2284.09 271.432L2288.5 274.635L2292.91 271.432L2291.22 276.615L2295.63 279.818L2290.18 279.818L2288.5 285Z" fill="#FCF9BF"/>
<path d="M2065 930L2063.88 926.545L2060.24 926.545L2063.18 924.41L2062.06 920.955L2065 923.09L2067.94 920.955L2066.82 924.41L2069.76 926.545L2066.12 926.545L2065 930Z" fill="#FCF9BF"/>
<path d="M262 270L260.877 266.545L257.245 266.545L260.184 264.41L259.061 260.955L262 263.09L264.939 260.955L263.816 264.41L266.755 266.545L263.122 266.545L262 270Z" fill="#FCF9BF"/>
<path d="M2080 454L2078.88 450.545L2075.24 450.545L2078.18 448.41L2077.06 444.955L2080 447.09L2082.94 444.955L2081.82 448.41L2084.76 450.545L2081.12 450.545L2080 454Z" fill="#FCF9BF"/>
<path d="M1495 510L1493.88 506.545L1490.24 506.545L1493.18 504.41L1492.06 500.955L1495 503.09L1497.94 500.955L1496.82 504.41L1499.76 506.545L1496.12 506.545L1495 510Z" fill="#FCF9BF"/>
<path d="M840 1006L838.877 1002.55L835.244 1002.55L838.183 1000.41L837.061 996.955L840 999.09L842.938 996.955L841.816 1000.41L844.755 1002.55L841.122 1002.55L840 1006Z" fill="#FCF9BF"/>
<path d="M109 967L107.877 963.545L104.245 963.545L107.184 961.41L106.061 957.955L109 960.09L111.939 957.955L110.816 961.41L113.755 963.545L110.123 963.545L109 967Z" fill="#FCF9BF"/>
<path d="M2070 631L2068.88 627.545L2065.24 627.545L2068.18 625.41L2067.06 621.955L2070 624.09L2072.94 621.955L2071.82 625.41L2074.76 627.545L2071.12 627.545L2070 631Z" fill="#FCF9BF"/>
<path d="M903 164L901.877 160.545L898.244 160.545L901.183 158.41L900.061 154.955L903 157.09L905.938 154.955L904.816 158.41L907.755 160.545L904.122 160.545L903 164Z" fill="#FCF9BF"/>
<path d="M536 106L534.877 102.545L531.245 102.545L534.184 100.41L533.061 96.9549L536 99.0902L538.939 96.9549L537.816 100.41L540.755 102.545L537.123 102.545L536 106Z" fill="#FCF9BF"/>
<path d="M1074 414L1072.88 410.545L1069.24 410.545L1072.18 408.41L1071.06 404.955L1074 407.09L1076.94 404.955L1075.82 408.41L1078.76 410.545L1075.12 410.545L1074 414Z" fill="#FCF9BF"/>
<path d="M1184 899L1182.88 895.545L1179.24 895.545L1182.18 893.41L1181.06 889.955L1184 892.09L1186.94 889.955L1185.82 893.41L1188.76 895.545L1185.12 895.545L1184 899Z" fill="#FCF9BF"/>
<path d="M625 285L623.877 281.545L620.245 281.545L623.184 279.41L622.061 275.955L625 278.09L627.939 275.955L626.816 279.41L629.755 281.545L626.123 281.545L625 285Z" fill="#FCF9BF"/>
<path d="M299 419L297.877 415.545L294.245 415.545L297.184 413.41L296.061 409.955L299 412.09L301.939 409.955L300.816 413.41L303.755 415.545L300.123 415.545L299 419Z" fill="#FCF9BF"/>
<path d="M212 578L210.877 574.545L207.245 574.545L210.184 572.41L209.061 568.955L212 571.09L214.939 568.955L213.816 572.41L216.755 574.545L213.123 574.545L212 578Z" fill="#FCF9BF"/>
<path d="M2449 1016L2447.88 1012.55L2444.24 1012.55L2447.18 1010.41L2446.06 1006.95L2449 1009.09L2451.94 1006.95L2450.82 1010.41L2453.76 1012.55L2450.12 1012.55L2449 1016Z" fill="#FCF9BF"/>
<path d="M267 808L265.877 804.545L262.245 804.545L265.184 802.41L264.061 798.955L267 801.09L269.939 798.955L268.816 802.41L271.755 804.545L268.123 804.545L267 808Z" fill="#FCF9BF"/>
<path d="M604.5 713L602.816 707.818L597.367 707.818L601.775 704.615L600.091 699.433L604.5 702.635L608.908 699.433L607.224 704.615L611.632 707.818L606.183 707.818L604.5 713Z" fill="#FCF9BF"/>
<path d="M14.5 365L12.8161 359.818L7.36708 359.818L11.7755 356.615L10.0916 351.432L14.5 354.635L18.9084 351.432L17.2245 356.615L21.6329 359.818L16.1839 359.818L14.5 365Z" fill="#FCF9BF"/>
<path d="M2228.5 131L2226.82 125.818L2221.37 125.818L2225.78 122.615L2224.09 117.432L2228.5 120.635L2232.91 117.432L2231.22 122.615L2235.63 125.818L2230.18 125.818L2228.5 131Z" fill="#FCF9BF"/>
<path d="M2057.5 92L2055.82 86.8177L2050.37 86.8177L2054.78 83.6148L2053.09 78.4324L2057.5 81.6353L2061.91 78.4324L2060.22 83.6148L2064.63 86.8177L2059.18 86.8177L2057.5 92Z" fill="#FCF9BF"/>
<path d="M202 116L200.877 112.545L197.245 112.545L200.184 110.41L199.061 106.955L202 109.09L204.939 106.955L203.816 110.41L206.755 112.545L203.122 112.545L202 116Z" fill="#FCF9BF"/>
<path d="M2020 300L2018.88 296.545L2015.24 296.545L2018.18 294.41L2017.06 290.955L2020 293.09L2022.94 290.955L2021.82 294.41L2024.76 296.545L2021.12 296.545L2020 300Z" fill="#FCF9BF"/>
<path d="M1628 270L1626.88 266.545L1623.24 266.545L1626.18 264.41L1625.06 260.955L1628 263.09L1630.94 260.955L1629.82 264.41L1632.76 266.545L1629.12 266.545L1628 270Z" fill="#FCF9BF"/>
<path d="M49 813L47.8774 809.545L44.2447 809.545L47.1836 807.41L46.0611 803.955L49 806.09L51.9389 803.955L50.8164 807.41L53.7553 809.545L50.1226 809.545L49 813Z" fill="#FCF9BF"/>
<path d="M843 10.0002L841.877 6.54527L838.244 6.54527L841.183 4.41001L840.061 0.955099L843 3.09035L845.938 0.955098L844.816 4.41001L847.755 6.54527L844.122 6.54527L843 10.0002Z" fill="#FCF9BF"/>
<path d="M1014 260L1012.88 256.545L1009.24 256.545L1012.18 254.41L1011.06 250.955L1014 253.09L1016.94 250.955L1015.82 254.41L1018.76 256.545L1015.12 256.545L1014 260Z" fill="#FCF9BF"/>
<path d="M1124 745L1122.88 741.545L1119.24 741.545L1122.18 739.41L1121.06 735.955L1124 738.09L1126.94 735.955L1125.82 739.41L1128.76 741.545L1125.12 741.545L1124 745Z" fill="#FCF9BF"/>
<path d="M1344 639L1342.88 635.545L1339.24 635.545L1342.18 633.41L1341.06 629.955L1344 632.09L1346.94 629.955L1345.82 633.41L1348.76 635.545L1345.12 635.545L1344 639Z" fill="#FCF9BF"/>
<path d="M2389 862L2387.88 858.545L2384.24 858.545L2387.18 856.41L2386.06 852.955L2389 855.09L2391.94 852.955L2390.82 856.41L2393.76 858.545L2390.12 858.545L2389 862Z" fill="#FCF9BF"/>
<path d="M1717 676L1715.88 672.545L1712.24 672.545L1715.18 670.41L1714.06 666.955L1717 669.09L1719.94 666.955L1718.82 670.41L1721.76 672.545L1718.12 672.545L1717 676Z" fill="#FCF9BF"/>
<path d="M1630.5 681L1632.18 686.182H1637.63L1633.22 689.385L1634.91 694.568L1630.5 691.365L1626.09 694.568L1627.78 689.385L1623.37 686.182H1628.82L1630.5 681Z" fill="#FCF9BF"/>
<path d="M1833.5 216L1835.18 221.182H1840.63L1836.22 224.385L1837.91 229.568L1833.5 226.365L1829.09 229.568L1830.78 224.385L1826.37 221.182H1831.82L1833.5 216Z" fill="#FCF9BF"/>
<path d="M1775.5 457L1777.18 462.182H1782.63L1778.22 465.385L1779.91 470.568L1775.5 467.365L1771.09 470.568L1772.78 465.385L1768.37 462.182H1773.82L1775.5 457Z" fill="#FCF9BF"/>
<path d="M2357.5 442L2359.18 447.182H2364.63L2360.22 450.385L2361.91 455.568L2357.5 452.365L2353.09 455.568L2354.78 450.385L2350.37 447.182H2355.82L2357.5 442Z" fill="#FCF9BF"/>
<path d="M2243.5 706L2245.18 711.182H2250.63L2246.22 714.385L2247.91 719.568L2243.5 716.365L2239.09 719.568L2240.78 714.385L2236.37 711.182H2241.82L2243.5 706Z" fill="#FCF9BF"/>
<path d="M908.5 874L910.184 879.182H915.633L911.225 882.385L912.908 887.568L908.5 884.365L904.092 887.568L905.775 882.385L901.367 879.182H906.816L908.5 874Z" fill="#FCF9BF"/>
<path d="M7.5 899L9.18386 904.182H14.6329L10.2245 907.385L11.9084 912.568L7.5 909.365L3.09161 912.568L4.77547 907.385L0.367076 904.182H5.81614L7.5 899Z" fill="#FCF9BF"/>
<path d="M2319 914L2320.12 917.455H2323.76L2320.82 919.59L2321.94 923.045L2319 920.91L2316.06 923.045L2317.18 919.59L2314.24 917.455H2317.88L2319 914Z" fill="#FCF9BF"/>
<path d="M1003 573L1004.12 576.455H1007.76L1004.82 578.59L1005.94 582.045L1003 579.91L1000.06 582.045L1001.18 578.59L998.245 576.455H1001.88L1003 573Z" fill="#FCF9BF"/>
<path d="M352 944L353.123 947.455H356.755L353.816 949.59L354.939 953.045L352 950.91L349.061 953.045L350.184 949.59L347.245 947.455H350.877L352 944Z" fill="#FCF9BF"/>
<path d="M1658 77L1659.12 80.4549H1662.76L1659.82 82.5902L1660.94 86.0451L1658 83.9098L1655.06 86.0451L1656.18 82.5902L1653.24 80.4549H1656.88L1658 77Z" fill="#FCF9BF"/>
<path d="M2389 116L2390.12 119.455H2393.76L2390.82 121.59L2391.94 125.045L2389 122.91L2386.06 125.045L2387.18 121.59L2384.24 119.455H2387.88L2389 116Z" fill="#FCF9BF"/>
<path d="M561 466L562.123 469.455H565.755L562.816 471.59L563.939 475.045L561 472.91L558.061 475.045L559.184 471.59L556.245 469.455H559.877L561 466Z" fill="#FCF9BF"/>
<path d="M433 666L434.123 669.455H437.755L434.816 671.59L435.939 675.045L433 672.91L430.061 675.045L431.184 671.59L428.245 669.455H431.877L433 666Z" fill="#FCF9BF"/>
<path d="M1325 471L1326.12 474.455H1329.76L1326.82 476.59L1327.94 480.045L1325 477.91L1322.06 480.045L1323.18 476.59L1320.24 474.455H1323.88L1325 471Z" fill="#FCF9BF"/>
<path d="M1315 260L1316.12 263.455H1319.76L1316.82 265.59L1317.94 269.045L1315 266.91L1312.06 269.045L1313.18 265.59L1310.24 263.455H1313.88L1315 260Z" fill="#FCF9BF"/>
<path d="M1738 818L1739.12 821.455H1742.76L1739.82 823.59L1740.94 827.045L1738 824.91L1735.06 827.045L1736.18 823.59L1733.24 821.455H1736.88L1738 818Z" fill="#FCF9BF"/>
<path d="M2012 788L2013.12 791.455H2016.76L2013.82 793.59L2014.94 797.045L2012 794.91L2009.06 797.045L2010.18 793.59L2007.24 791.455H2010.88L2012 788Z" fill="#FCF9BF"/>
<path d="M1917 553L1918.12 556.455H1921.76L1918.82 558.59L1919.94 562.045L1917 559.91L1914.06 562.045L1915.18 558.59L1912.24 556.455H1915.88L1917 553Z" fill="#FCF9BF"/>
<path d="M49 67L50.1226 70.4549H53.7553L50.8164 72.5902L51.9389 76.0451L49 73.9098L46.0611 76.0451L47.1836 72.5902L44.2447 70.4549H47.8774L49 67Z" fill="#FCF9BF"/>
</svg>
