<svg width="2387" height="883" viewBox="0 0 2387 883" fill="none" xmlns="http://www.w3.org/2000/svg">
<path d="M749 558L747.877 554.545L744.244 554.545L747.183 552.41L746.061 548.955L749 551.09L751.938 548.955L750.816 552.41L753.755 554.545L750.122 554.545L749 558Z" fill="#FCF9BF"/>
<path d="M690.5 348L688.816 342.818L683.367 342.818L687.775 339.615L686.092 334.432L690.5 337.635L694.908 334.432L693.225 339.615L697.633 342.818L692.184 342.818L690.5 348Z" fill="#FCF9BF"/>
<path d="M1661 863L1659.88 859.545L1656.24 859.545L1659.18 857.41L1658.06 853.955L1661 856.09L1663.94 853.955L1662.82 857.41L1665.76 859.545L1662.12 859.545L1661 863Z" fill="#FCF9BF"/>
<path d="M597.5 734L595.816 728.818L590.367 728.818L594.775 725.615L593.091 720.433L597.5 723.635L601.908 720.433L600.224 725.615L604.632 728.818L599.183 728.818L597.5 734Z" fill="#FCF9BF"/>
<path d="M7.5 386L5.81614 380.818L0.367075 380.818L4.77546 377.615L3.09161 372.432L7.5 375.635L11.9084 372.432L10.2245 377.615L14.6329 380.818L9.18385 380.818L7.5 386Z" fill="#FCF9BF"/>
<path d="M1415.5 1.00009L1413.82 -4.18228L1408.37 -4.18228L1412.78 -7.38516L1411.09 -12.5675L1415.5 -9.36465L1419.91 -12.5675L1418.22 -7.38516L1422.63 -4.18228L1417.18 -4.18228L1415.5 1.00009Z" fill="#FCF9BF"/>
<path d="M2221.5 152L2219.82 146.818L2214.37 146.818L2218.78 143.615L2217.09 138.432L2221.5 141.635L2225.91 138.432L2224.22 143.615L2228.63 146.818L2223.18 146.818L2221.5 152Z" fill="#FCF9BF"/>
<path d="M1998 797L1996.88 793.545L1993.24 793.545L1996.18 791.41L1995.06 787.955L1998 790.09L2000.94 787.955L1999.82 791.41L2002.76 793.545L1999.12 793.545L1998 797Z" fill="#FCF9BF"/>
<path d="M195 137L193.877 133.545L190.245 133.545L193.184 131.41L192.061 127.955L195 130.09L197.939 127.955L196.816 131.41L199.755 133.545L196.123 133.545L195 137Z" fill="#FCF9BF"/>
<path d="M2013 321L2011.88 317.545L2008.24 317.545L2011.18 315.41L2010.06 311.955L2013 314.09L2015.94 311.955L2014.82 315.41L2017.76 317.545L2014.12 317.545L2013 321Z" fill="#FCF9BF"/>
<path d="M1621 291L1619.88 287.545L1616.24 287.545L1619.18 285.41L1618.06 281.955L1621 284.09L1623.94 281.955L1622.82 285.41L1625.76 287.545L1622.12 287.545L1621 291Z" fill="#FCF9BF"/>
<path d="M1428 377L1426.88 373.545L1423.24 373.545L1426.18 371.41L1425.06 367.955L1428 370.09L1430.94 367.955L1429.82 371.41L1432.76 373.545L1429.12 373.545L1428 377Z" fill="#FCF9BF"/>
<path d="M2079 6.00009L2077.88 2.54518L2074.24 2.54518L2077.18 0.409922L2076.06 -3.04499L2079 -0.909738L2081.94 -3.04499L2080.82 0.409922L2083.76 2.54518L2080.12 2.54518L2079 6.00009Z" fill="#FCF9BF"/>
<path d="M773 873L771.877 869.545L768.244 869.545L771.183 867.41L770.061 863.955L773 866.09L775.938 863.955L774.816 867.41L777.755 869.545L774.122 869.545L773 873Z" fill="#FCF9BF"/>
<path d="M47 744L45.8774 740.545L42.2447 740.545L45.1836 738.41L44.0611 734.955L47 737.09L49.9389 734.955L48.8164 738.41L51.7553 740.545L48.1226 740.545L47 744Z" fill="#FCF9BF"/>
<path d="M1935 440L1933.88 436.545L1930.24 436.545L1933.18 434.41L1932.06 430.955L1935 433.09L1937.94 430.955L1936.82 434.41L1939.76 436.545L1936.12 436.545L1935 440Z" fill="#FCF9BF"/>
<path d="M2299 621L2297.88 617.545L2294.24 617.545L2297.18 615.41L2296.06 611.955L2299 614.09L2301.94 611.955L2300.82 615.41L2303.76 617.545L2300.12 617.545L2299 621Z" fill="#FCF9BF"/>
<path d="M836 31.0002L834.877 27.5453L831.244 27.5453L834.183 25.41L833.061 21.9551L836 24.0904L838.938 21.9551L837.816 25.41L840.755 27.5453L837.122 27.5453L836 31.0002Z" fill="#FCF9BF"/>
<path d="M1051 563L1049.88 559.545L1046.24 559.545L1049.18 557.41L1048.06 553.955L1051 556.09L1053.94 553.955L1052.82 557.41L1055.76 559.545L1052.12 559.545L1051 563Z" fill="#FCF9BF"/>
<path d="M1007 281L1005.88 277.545L1002.24 277.545L1005.18 275.41L1004.06 271.955L1007 274.09L1009.94 271.955L1008.82 275.41L1011.76 277.545L1008.12 277.545L1007 281Z" fill="#FCF9BF"/>
<path d="M1117 766L1115.88 762.545L1112.24 762.545L1115.18 760.41L1114.06 756.955L1117 759.09L1119.94 756.955L1118.82 760.41L1121.76 762.545L1118.12 762.545L1117 766Z" fill="#FCF9BF"/>
<path d="M558 152L556.877 148.545L553.245 148.545L556.184 146.41L555.061 142.955L558 145.09L560.939 142.955L559.816 146.41L562.755 148.545L559.123 148.545L558 152Z" fill="#FCF9BF"/>
<path d="M1337 660L1335.88 656.545L1332.24 656.545L1335.18 654.41L1334.06 650.955L1337 653.09L1339.94 650.955L1338.82 654.41L1341.76 656.545L1338.12 656.545L1337 660Z" fill="#FCF9BF"/>
<path d="M2382 883L2380.88 879.545L2377.24 879.545L2380.18 877.41L2379.06 873.955L2382 876.09L2384.94 873.955L2383.82 877.41L2386.76 879.545L2383.12 879.545L2382 883Z" fill="#FCF9BF"/>
<path d="M2194 387L2192.88 383.545L2189.24 383.545L2192.18 381.41L2191.06 377.955L2194 380.09L2196.94 377.955L2195.82 381.41L2198.76 383.545L2195.12 383.545L2194 387Z" fill="#FCF9BF"/>
<path d="M400 626L398.877 622.545L395.245 622.545L398.184 620.41L397.061 616.955L400 619.09L402.939 616.955L401.816 620.41L404.755 622.545L401.123 622.545L400 626Z" fill="#FCF9BF"/>
<path d="M1710 697L1708.88 693.545L1705.24 693.545L1708.18 691.41L1707.06 687.955L1710 690.09L1712.94 687.955L1711.82 691.41L1714.76 693.545L1711.12 693.545L1710 697Z" fill="#FCF9BF"/>
</svg>
